<svg width="118" height="50" viewBox="0 0 118 50" fill="none" xmlns="http://www.w3.org/2000/svg">
<path d="M0 0H8.19355V12.7677C9.8243 10.3789 12.7676 8.73147 16.4666 8.73147C22.5521 8.73147 26.6489 13.1384 26.6489 20.5931V36.7792H18.4951V21.7051C18.4951 17.916 16.4666 15.8567 13.3642 15.8567C10.2618 15.8567 8.23332 17.9572 8.23332 21.7051V36.7792H0V0Z" fill="#4DB748"/>
<path d="M42.7973 37.1911C34.9219 37.1911 29.2739 31.7133 29.2739 22.9407C29.2739 14.1268 34.8424 8.69025 42.7973 8.69025C50.6328 8.69025 56.1217 14.0444 56.1217 22.4876C56.1217 23.2701 56.0819 24.1351 55.9626 24.9588H37.4277C37.7061 28.5832 39.8937 30.2718 42.5188 30.2718C44.8258 30.2718 46.1383 29.0774 46.7747 27.5947H55.5251C54.2523 32.9901 49.4794 37.1911 42.7973 37.1911ZM37.5072 20.2224H47.7691C47.7691 17.1746 45.4621 15.4448 42.7177 15.4448C40.013 15.4448 37.9845 17.1334 37.5072 20.2224Z" fill="#4DB748"/>
<path d="M59.0254 0H67.2189V36.7792H59.0254V0Z" fill="#4DB748"/>
<path d="M88.2198 8.64911C94.7826 8.64911 100.033 14.1269 100.033 22.8583C100.033 31.5898 94.7826 37.1911 88.2198 37.1911C84.2821 37.1911 81.4582 35.2554 79.9467 32.9078V50H71.7532V9.06097H79.9467V12.9737C81.4582 10.5437 84.2821 8.64911 88.2198 8.64911ZM85.7936 16.0626C82.7309 16.0626 79.9467 18.4926 79.9467 22.9407C79.9467 27.3476 82.7309 29.8188 85.7936 29.8188C88.896 29.8188 91.6802 27.3476 91.6802 22.8995C91.6802 18.4514 88.896 16.0626 85.7936 16.0626Z" fill="#4DB748"/>
<path d="M104.209 16.1038H100.948V9.06093H104.209V2.3064H112.403V9.06093H117.772V16.1038H112.403V27.224C112.403 28.8715 113.079 29.5716 114.909 29.5716H117.852V36.7792H113.676C108.107 36.7792 104.209 34.3492 104.209 27.1417V16.1038Z" fill="#4DB748"/>
</svg>
